<mxfile host="app.diagrams.net" agent="Mozilla/5.0 (Windows NT 10.0; Win64; x64) AppleWebKit/537.36 (KHTML, like Gecko) Chrome/134.0.0.0 Safari/537.36" version="28.2.5">
  <diagram name="PÃ¡gina-1" id="4EE9Tg2MkgHsX2mYQQJ2">
    <mxGraphModel dx="826" dy="475" grid="1" gridSize="10" guides="1" tooltips="1" connect="1" arrows="1" fold="1" page="1" pageScale="1" pageWidth="827" pageHeight="1169" math="0" shadow="0">
      <root>
        <mxCell id="0" />
        <mxCell id="1" parent="0" />
        <mxCell id="dzi_PaSN1gbAKwPi_Wlg-2" value="Produto" style="swimlane;fontStyle=1;align=center;verticalAlign=top;childLayout=stackLayout;horizontal=1;startSize=26;horizontalStack=0;resizeParent=1;resizeParentMax=0;resizeLast=0;collapsible=1;marginBottom=0;whiteSpace=wrap;html=1;" parent="1" vertex="1">
          <mxGeometry x="279" y="110" width="270" height="170" as="geometry" />
        </mxCell>
        <mxCell id="dzi_PaSN1gbAKwPi_Wlg-3" value="- codigo: Long&amp;nbsp;&lt;div&gt;- nome: String&lt;/div&gt;&lt;div&gt;- lote: String&lt;/div&gt;&lt;div&gt;- aprovadoInspecao: boolean&lt;/div&gt;" style="text;strokeColor=none;fillColor=none;align=left;verticalAlign=top;spacingLeft=4;spacingRight=4;overflow=hidden;rotatable=0;points=[[0,0.5],[1,0.5]];portConstraint=eastwest;whiteSpace=wrap;html=1;" parent="dzi_PaSN1gbAKwPi_Wlg-2" vertex="1">
          <mxGeometry y="26" width="270" height="74" as="geometry" />
        </mxCell>
        <mxCell id="dzi_PaSN1gbAKwPi_Wlg-4" value="" style="line;strokeWidth=1;fillColor=none;align=left;verticalAlign=middle;spacingTop=-1;spacingLeft=3;spacingRight=3;rotatable=0;labelPosition=right;points=[];portConstraint=eastwest;strokeColor=inherit;" parent="dzi_PaSN1gbAKwPi_Wlg-2" vertex="1">
          <mxGeometry y="100" width="270" height="8" as="geometry" />
        </mxCell>
        <mxCell id="dzi_PaSN1gbAKwPi_Wlg-5" value="+ getDetalhes(codigoProduto Long): String&lt;div&gt;+ inspecionar(void): String&lt;/div&gt;&lt;div&gt;+ isAprovado(): boolean&lt;/div&gt;" style="text;strokeColor=none;fillColor=none;align=left;verticalAlign=top;spacingLeft=4;spacingRight=4;overflow=hidden;rotatable=0;points=[[0,0.5],[1,0.5]];portConstraint=eastwest;whiteSpace=wrap;html=1;" parent="dzi_PaSN1gbAKwPi_Wlg-2" vertex="1">
          <mxGeometry y="108" width="270" height="62" as="geometry" />
        </mxCell>
        <mxCell id="dzi_PaSN1gbAKwPi_Wlg-6" value="ProdutoEletronico" style="swimlane;fontStyle=1;align=center;verticalAlign=top;childLayout=stackLayout;horizontal=1;startSize=26;horizontalStack=0;resizeParent=1;resizeParentMax=0;resizeLast=0;collapsible=1;marginBottom=0;whiteSpace=wrap;html=1;" parent="1" vertex="1">
          <mxGeometry x="100" y="420" width="220" height="170" as="geometry" />
        </mxCell>
        <mxCell id="dzi_PaSN1gbAKwPi_Wlg-7" value="- tensaoNominal: int&lt;div&gt;- tensaoReal: double&lt;br&gt;&lt;div&gt;- ligando: boolean&amp;nbsp; &amp;nbsp; &amp;nbsp;&lt;/div&gt;&lt;/div&gt;" style="text;strokeColor=none;fillColor=none;align=left;verticalAlign=top;spacingLeft=4;spacingRight=4;overflow=hidden;rotatable=0;points=[[0,0.5],[1,0.5]];portConstraint=eastwest;whiteSpace=wrap;html=1;" parent="dzi_PaSN1gbAKwPi_Wlg-6" vertex="1">
          <mxGeometry y="26" width="220" height="64" as="geometry" />
        </mxCell>
        <mxCell id="dzi_PaSN1gbAKwPi_Wlg-8" value="" style="line;strokeWidth=1;fillColor=none;align=left;verticalAlign=middle;spacingTop=-1;spacingLeft=3;spacingRight=3;rotatable=0;labelPosition=right;points=[];portConstraint=eastwest;strokeColor=inherit;" parent="dzi_PaSN1gbAKwPi_Wlg-6" vertex="1">
          <mxGeometry y="90" width="220" height="8" as="geometry" />
        </mxCell>
        <mxCell id="dzi_PaSN1gbAKwPi_Wlg-9" value="&lt;div&gt;&lt;div&gt;+ inspecionar(void): String&lt;/div&gt;&lt;/div&gt;&lt;div&gt;+ testeTensao(void): String&lt;/div&gt;&lt;div&gt;+ testeFuncionalidade(void):String&amp;nbsp;&lt;/div&gt;&lt;div&gt;+ getDetalhes(void): String&lt;/div&gt;" style="text;strokeColor=none;fillColor=none;align=left;verticalAlign=top;spacingLeft=4;spacingRight=4;overflow=hidden;rotatable=0;points=[[0,0.5],[1,0.5]];portConstraint=eastwest;whiteSpace=wrap;html=1;" parent="dzi_PaSN1gbAKwPi_Wlg-6" vertex="1">
          <mxGeometry y="98" width="220" height="72" as="geometry" />
        </mxCell>
        <mxCell id="dzi_PaSN1gbAKwPi_Wlg-10" value="ProdutoAlimenticio" style="swimlane;fontStyle=1;align=center;verticalAlign=top;childLayout=stackLayout;horizontal=1;startSize=26;horizontalStack=0;resizeParent=1;resizeParentMax=0;resizeLast=0;collapsible=1;marginBottom=0;whiteSpace=wrap;html=1;" parent="1" vertex="1">
          <mxGeometry x="549" y="416" width="200" height="120" as="geometry" />
        </mxCell>
        <mxCell id="dzi_PaSN1gbAKwPi_Wlg-11" value="- dataValidade: String&lt;div&gt;- embalagemIntegra: boolean&lt;/div&gt;&lt;div&gt;&lt;br&gt;&lt;/div&gt;" style="text;strokeColor=none;fillColor=none;align=left;verticalAlign=top;spacingLeft=4;spacingRight=4;overflow=hidden;rotatable=0;points=[[0,0.5],[1,0.5]];portConstraint=eastwest;whiteSpace=wrap;html=1;" parent="dzi_PaSN1gbAKwPi_Wlg-10" vertex="1">
          <mxGeometry y="26" width="200" height="44" as="geometry" />
        </mxCell>
        <mxCell id="dzi_PaSN1gbAKwPi_Wlg-12" value="" style="line;strokeWidth=1;fillColor=none;align=left;verticalAlign=middle;spacingTop=-1;spacingLeft=3;spacingRight=3;rotatable=0;labelPosition=right;points=[];portConstraint=eastwest;strokeColor=inherit;" parent="dzi_PaSN1gbAKwPi_Wlg-10" vertex="1">
          <mxGeometry y="70" width="200" height="8" as="geometry" />
        </mxCell>
        <mxCell id="dzi_PaSN1gbAKwPi_Wlg-13" value="+ inspecionar(void): String&lt;div&gt;+ getDetalhes(void): String&lt;/div&gt;" style="text;strokeColor=none;fillColor=none;align=left;verticalAlign=top;spacingLeft=4;spacingRight=4;overflow=hidden;rotatable=0;points=[[0,0.5],[1,0.5]];portConstraint=eastwest;whiteSpace=wrap;html=1;" parent="dzi_PaSN1gbAKwPi_Wlg-10" vertex="1">
          <mxGeometry y="78" width="200" height="42" as="geometry" />
        </mxCell>
        <mxCell id="dzi_PaSN1gbAKwPi_Wlg-14" value="Smartphone" style="swimlane;fontStyle=1;align=center;verticalAlign=top;childLayout=stackLayout;horizontal=1;startSize=26;horizontalStack=0;resizeParent=1;resizeParentMax=0;resizeLast=0;collapsible=1;marginBottom=0;whiteSpace=wrap;html=1;" parent="1" vertex="1">
          <mxGeometry x="100" y="770" width="220" height="170" as="geometry" />
        </mxCell>
        <mxCell id="dzi_PaSN1gbAKwPi_Wlg-15" value="- capacidadeBateriaNominal: int&lt;div&gt;- capacidadeBateriaReal: double&lt;br&gt;&lt;div&gt;- conectividade5G: boolean&lt;/div&gt;&lt;/div&gt;" style="text;strokeColor=none;fillColor=none;align=left;verticalAlign=top;spacingLeft=4;spacingRight=4;overflow=hidden;rotatable=0;points=[[0,0.5],[1,0.5]];portConstraint=eastwest;whiteSpace=wrap;html=1;" parent="dzi_PaSN1gbAKwPi_Wlg-14" vertex="1">
          <mxGeometry y="26" width="220" height="54" as="geometry" />
        </mxCell>
        <mxCell id="dzi_PaSN1gbAKwPi_Wlg-16" value="" style="line;strokeWidth=1;fillColor=none;align=left;verticalAlign=middle;spacingTop=-1;spacingLeft=3;spacingRight=3;rotatable=0;labelPosition=right;points=[];portConstraint=eastwest;strokeColor=inherit;" parent="dzi_PaSN1gbAKwPi_Wlg-14" vertex="1">
          <mxGeometry y="80" width="220" height="8" as="geometry" />
        </mxCell>
        <mxCell id="dzi_PaSN1gbAKwPi_Wlg-17" value="+ inspecionar(void): String&lt;div&gt;+ testeCapacidadeBateria(voids) String&lt;/div&gt;&lt;div&gt;+ testeConectividade5g(void): String&lt;/div&gt;&lt;div&gt;+ getDetalhesInspecao(void): String&lt;/div&gt;" style="text;strokeColor=none;fillColor=none;align=left;verticalAlign=top;spacingLeft=4;spacingRight=4;overflow=hidden;rotatable=0;points=[[0,0.5],[1,0.5]];portConstraint=eastwest;whiteSpace=wrap;html=1;" parent="dzi_PaSN1gbAKwPi_Wlg-14" vertex="1">
          <mxGeometry y="88" width="220" height="82" as="geometry" />
        </mxCell>
        <mxCell id="dzi_PaSN1gbAKwPi_Wlg-18" value="ProdutoAPerecivel" style="swimlane;fontStyle=1;align=center;verticalAlign=top;childLayout=stackLayout;horizontal=1;startSize=26;horizontalStack=0;resizeParent=1;resizeParentMax=0;resizeLast=0;collapsible=1;marginBottom=0;whiteSpace=wrap;html=1;" parent="1" vertex="1">
          <mxGeometry x="550" y="730" width="220" height="140" as="geometry" />
        </mxCell>
        <mxCell id="dzi_PaSN1gbAKwPi_Wlg-19" value="- temperatura,: double&lt;div&gt;- armazenamento: boolean&lt;/div&gt;&lt;div&gt;&lt;br&gt;&lt;/div&gt;" style="text;strokeColor=none;fillColor=none;align=left;verticalAlign=top;spacingLeft=4;spacingRight=4;overflow=hidden;rotatable=0;points=[[0,0.5],[1,0.5]];portConstraint=eastwest;whiteSpace=wrap;html=1;" parent="dzi_PaSN1gbAKwPi_Wlg-18" vertex="1">
          <mxGeometry y="26" width="220" height="44" as="geometry" />
        </mxCell>
        <mxCell id="dzi_PaSN1gbAKwPi_Wlg-20" value="" style="line;strokeWidth=1;fillColor=none;align=left;verticalAlign=middle;spacingTop=-1;spacingLeft=3;spacingRight=3;rotatable=0;labelPosition=right;points=[];portConstraint=eastwest;strokeColor=inherit;" parent="dzi_PaSN1gbAKwPi_Wlg-18" vertex="1">
          <mxGeometry y="70" width="220" height="8" as="geometry" />
        </mxCell>
        <mxCell id="dzi_PaSN1gbAKwPi_Wlg-21" value="+ inspecionar(void): String&lt;div&gt;+ testeTemperatura(void): String&lt;/div&gt;&lt;div&gt;+&amp;nbsp;setAprovadoInspecao(void): String&lt;/div&gt;" style="text;strokeColor=none;fillColor=none;align=left;verticalAlign=top;spacingLeft=4;spacingRight=4;overflow=hidden;rotatable=0;points=[[0,0.5],[1,0.5]];portConstraint=eastwest;whiteSpace=wrap;html=1;" parent="dzi_PaSN1gbAKwPi_Wlg-18" vertex="1">
          <mxGeometry y="78" width="220" height="62" as="geometry" />
        </mxCell>
        <mxCell id="dzi_PaSN1gbAKwPi_Wlg-24" value="&lt;br&gt;&lt;div&gt;&lt;br&gt;&lt;/div&gt;" style="endArrow=block;endFill=1;html=1;edgeStyle=orthogonalEdgeStyle;align=left;verticalAlign=top;rounded=0;exitX=0.5;exitY=0;exitDx=0;exitDy=0;" parent="1" source="dzi_PaSN1gbAKwPi_Wlg-6" edge="1">
          <mxGeometry x="-1" relative="1" as="geometry">
            <mxPoint x="330" y="390" as="sourcePoint" />
            <mxPoint x="390" y="290" as="targetPoint" />
          </mxGeometry>
        </mxCell>
        <mxCell id="dzi_PaSN1gbAKwPi_Wlg-25" value="1" style="edgeLabel;resizable=0;html=1;align=left;verticalAlign=bottom;" parent="dzi_PaSN1gbAKwPi_Wlg-24" connectable="0" vertex="1">
          <mxGeometry x="-1" relative="1" as="geometry" />
        </mxCell>
        <mxCell id="dzi_PaSN1gbAKwPi_Wlg-26" value="" style="endArrow=block;endFill=1;html=1;edgeStyle=orthogonalEdgeStyle;align=left;verticalAlign=top;rounded=0;exitX=0.5;exitY=0;exitDx=0;exitDy=0;" parent="1" source="dzi_PaSN1gbAKwPi_Wlg-10" edge="1">
          <mxGeometry x="-1" y="-42" relative="1" as="geometry">
            <mxPoint x="330" y="390" as="sourcePoint" />
            <mxPoint x="450" y="290" as="targetPoint" />
            <mxPoint x="-12" y="30" as="offset" />
          </mxGeometry>
        </mxCell>
        <mxCell id="dzi_PaSN1gbAKwPi_Wlg-27" value="1" style="edgeLabel;resizable=0;html=1;align=left;verticalAlign=bottom;" parent="dzi_PaSN1gbAKwPi_Wlg-26" connectable="0" vertex="1">
          <mxGeometry x="-1" relative="1" as="geometry" />
        </mxCell>
        <mxCell id="jY2GeyxsHg-IfGBeUz-H-2" value="Getters and Setters estÃ£o omitidos." style="whiteSpace=wrap;html=1;" vertex="1" parent="1">
          <mxGeometry x="40" y="40" width="120" height="60" as="geometry" />
        </mxCell>
        <mxCell id="jY2GeyxsHg-IfGBeUz-H-3" value="" style="endArrow=open;endFill=1;endSize=12;html=1;rounded=0;exitX=0.44;exitY=1.057;exitDx=0;exitDy=0;exitPerimeter=0;" edge="1" parent="1" source="dzi_PaSN1gbAKwPi_Wlg-9">
          <mxGeometry width="160" relative="1" as="geometry">
            <mxPoint x="360" y="700" as="sourcePoint" />
            <mxPoint x="197" y="760" as="targetPoint" />
          </mxGeometry>
        </mxCell>
        <mxCell id="jY2GeyxsHg-IfGBeUz-H-4" value="" style="endArrow=open;endFill=1;endSize=12;html=1;rounded=0;exitX=0.485;exitY=1.081;exitDx=0;exitDy=0;exitPerimeter=0;" edge="1" parent="1" source="dzi_PaSN1gbAKwPi_Wlg-13">
          <mxGeometry width="160" relative="1" as="geometry">
            <mxPoint x="580" y="630" as="sourcePoint" />
            <mxPoint x="646" y="710" as="targetPoint" />
          </mxGeometry>
        </mxCell>
      </root>
    </mxGraphModel>
  </diagram>
</mxfile>
